<svg xmlns="http://www.w3.org/2000/svg" width="260" height="260" xmlns:xlink="http://www.w3.org/1999/xlink" viewBox="0 0 260 260"><defs><clipPath id="clip-path-background-color-0"><rect x="0" y="0" width="260" height="260"/></clipPath><clipPath id="clip-path-dot-color-0"><rect x="70" y="14" width="7" height="7" transform="rotate(0,73.5,17.5)"/><rect x="98" y="14" width="7" height="7" transform="rotate(0,101.5,17.5)"/><rect x="105" y="14" width="7" height="7" transform="rotate(0,108.5,17.5)"/><rect x="112" y="14" width="7" height="7" transform="rotate(0,115.5,17.5)"/><rect x="119" y="14" width="7" height="7" transform="rotate(0,122.5,17.5)"/><rect x="126" y="14" width="7" height="7" transform="rotate(0,129.5,17.5)"/><rect x="147" y="14" width="7" height="7" transform="rotate(0,150.5,17.5)"/><rect x="168" y="14" width="7" height="7" transform="rotate(0,171.5,17.5)"/><rect x="175" y="14" width="7" height="7" transform="rotate(0,178.5,17.5)"/><rect x="77" y="21" width="7" height="7" transform="rotate(0,80.5,24.5)"/><rect x="84" y="21" width="7" height="7" transform="rotate(0,87.5,24.5)"/><rect x="112" y="21" width="7" height="7" transform="rotate(0,115.5,24.5)"/><rect x="126" y="21" width="7" height="7" transform="rotate(0,129.5,24.5)"/><rect x="133" y="21" width="7" height="7" transform="rotate(0,136.5,24.5)"/><rect x="154" y="21" width="7" height="7" transform="rotate(0,157.5,24.5)"/><rect x="161" y="21" width="7" height="7" transform="rotate(0,164.5,24.5)"/><rect x="168" y="21" width="7" height="7" transform="rotate(0,171.5,24.5)"/><rect x="175" y="21" width="7" height="7" transform="rotate(0,178.5,24.5)"/><rect x="182" y="21" width="7" height="7" transform="rotate(0,185.5,24.5)"/><rect x="70" y="28" width="7" height="7" transform="rotate(0,73.5,31.5)"/><rect x="84" y="28" width="7" height="7" transform="rotate(0,87.5,31.5)"/><rect x="91" y="28" width="7" height="7" transform="rotate(0,94.5,31.5)"/><rect x="98" y="28" width="7" height="7" transform="rotate(0,101.5,31.5)"/><rect x="119" y="28" width="7" height="7" transform="rotate(0,122.5,31.5)"/><rect x="133" y="28" width="7" height="7" transform="rotate(0,136.5,31.5)"/><rect x="175" y="28" width="7" height="7" transform="rotate(0,178.5,31.5)"/><rect x="70" y="35" width="7" height="7" transform="rotate(0,73.5,38.5)"/><rect x="91" y="35" width="7" height="7" transform="rotate(0,94.5,38.5)"/><rect x="98" y="35" width="7" height="7" transform="rotate(0,101.5,38.5)"/><rect x="112" y="35" width="7" height="7" transform="rotate(0,115.5,38.5)"/><rect x="133" y="35" width="7" height="7" transform="rotate(0,136.5,38.5)"/><rect x="147" y="35" width="7" height="7" transform="rotate(0,150.5,38.5)"/><rect x="161" y="35" width="7" height="7" transform="rotate(0,164.5,38.5)"/><rect x="175" y="35" width="7" height="7" transform="rotate(0,178.5,38.5)"/><rect x="84" y="42" width="7" height="7" transform="rotate(0,87.5,45.5)"/><rect x="98" y="42" width="7" height="7" transform="rotate(0,101.5,45.5)"/><rect x="112" y="42" width="7" height="7" transform="rotate(0,115.5,45.5)"/><rect x="119" y="42" width="7" height="7" transform="rotate(0,122.5,45.5)"/><rect x="126" y="42" width="7" height="7" transform="rotate(0,129.5,45.5)"/><rect x="147" y="42" width="7" height="7" transform="rotate(0,150.5,45.5)"/><rect x="161" y="42" width="7" height="7" transform="rotate(0,164.5,45.5)"/><rect x="168" y="42" width="7" height="7" transform="rotate(0,171.5,45.5)"/><rect x="70" y="49" width="7" height="7" transform="rotate(0,73.5,52.5)"/><rect x="84" y="49" width="7" height="7" transform="rotate(0,87.5,52.5)"/><rect x="112" y="49" width="7" height="7" transform="rotate(0,115.5,52.5)"/><rect x="126" y="49" width="7" height="7" transform="rotate(0,129.5,52.5)"/><rect x="133" y="49" width="7" height="7" transform="rotate(0,136.5,52.5)"/><rect x="154" y="49" width="7" height="7" transform="rotate(0,157.5,52.5)"/><rect x="168" y="49" width="7" height="7" transform="rotate(0,171.5,52.5)"/><rect x="175" y="49" width="7" height="7" transform="rotate(0,178.5,52.5)"/><rect x="70" y="56" width="7" height="7" transform="rotate(0,73.5,59.5)"/><rect x="84" y="56" width="7" height="7" transform="rotate(0,87.5,59.5)"/><rect x="98" y="56" width="7" height="7" transform="rotate(0,101.5,59.5)"/><rect x="112" y="56" width="7" height="7" transform="rotate(0,115.5,59.5)"/><rect x="126" y="56" width="7" height="7" transform="rotate(0,129.5,59.5)"/><rect x="140" y="56" width="7" height="7" transform="rotate(0,143.5,59.5)"/><rect x="154" y="56" width="7" height="7" transform="rotate(0,157.5,59.5)"/><rect x="168" y="56" width="7" height="7" transform="rotate(0,171.5,59.5)"/><rect x="182" y="56" width="7" height="7" transform="rotate(0,185.5,59.5)"/><rect x="70" y="63" width="7" height="7" transform="rotate(0,73.5,66.5)"/><rect x="84" y="63" width="7" height="7" transform="rotate(0,87.5,66.5)"/><rect x="91" y="63" width="7" height="7" transform="rotate(0,94.5,66.5)"/><rect x="119" y="63" width="7" height="7" transform="rotate(0,122.5,66.5)"/><rect x="126" y="63" width="7" height="7" transform="rotate(0,129.5,66.5)"/><rect x="133" y="63" width="7" height="7" transform="rotate(0,136.5,66.5)"/><rect x="147" y="63" width="7" height="7" transform="rotate(0,150.5,66.5)"/><rect x="154" y="63" width="7" height="7" transform="rotate(0,157.5,66.5)"/><rect x="161" y="63" width="7" height="7" transform="rotate(0,164.5,66.5)"/><rect x="168" y="63" width="7" height="7" transform="rotate(0,171.5,66.5)"/><rect x="182" y="63" width="7" height="7" transform="rotate(0,185.5,66.5)"/><rect x="21" y="70" width="7" height="7" transform="rotate(0,24.5,73.5)"/><rect x="35" y="70" width="7" height="7" transform="rotate(0,38.5,73.5)"/><rect x="49" y="70" width="7" height="7" transform="rotate(0,52.5,73.5)"/><rect x="56" y="70" width="7" height="7" transform="rotate(0,59.5,73.5)"/><rect x="63" y="70" width="7" height="7" transform="rotate(0,66.5,73.5)"/><rect x="70" y="70" width="7" height="7" transform="rotate(0,73.5,73.5)"/><rect x="84" y="70" width="7" height="7" transform="rotate(0,87.5,73.5)"/><rect x="91" y="70" width="7" height="7" transform="rotate(0,94.5,73.5)"/><rect x="98" y="70" width="7" height="7" transform="rotate(0,101.5,73.5)"/><rect x="112" y="70" width="7" height="7" transform="rotate(0,115.5,73.5)"/><rect x="126" y="70" width="7" height="7" transform="rotate(0,129.5,73.5)"/><rect x="140" y="70" width="7" height="7" transform="rotate(0,143.5,73.5)"/><rect x="147" y="70" width="7" height="7" transform="rotate(0,150.5,73.5)"/><rect x="154" y="70" width="7" height="7" transform="rotate(0,157.5,73.5)"/><rect x="161" y="70" width="7" height="7" transform="rotate(0,164.5,73.5)"/><rect x="182" y="70" width="7" height="7" transform="rotate(0,185.5,73.5)"/><rect x="189" y="70" width="7" height="7" transform="rotate(0,192.5,73.5)"/><rect x="196" y="70" width="7" height="7" transform="rotate(0,199.5,73.5)"/><rect x="203" y="70" width="7" height="7" transform="rotate(0,206.5,73.5)"/><rect x="217" y="70" width="7" height="7" transform="rotate(0,220.5,73.5)"/><rect x="224" y="70" width="7" height="7" transform="rotate(0,227.5,73.5)"/><rect x="238" y="70" width="7" height="7" transform="rotate(0,241.5,73.5)"/><rect x="14" y="77" width="7" height="7" transform="rotate(0,17.5,80.5)"/><rect x="21" y="77" width="7" height="7" transform="rotate(0,24.5,80.5)"/><rect x="35" y="77" width="7" height="7" transform="rotate(0,38.5,80.5)"/><rect x="63" y="77" width="7" height="7" transform="rotate(0,66.5,80.5)"/><rect x="70" y="77" width="7" height="7" transform="rotate(0,73.5,80.5)"/><rect x="98" y="77" width="7" height="7" transform="rotate(0,101.5,80.5)"/><rect x="105" y="77" width="7" height="7" transform="rotate(0,108.5,80.5)"/><rect x="112" y="77" width="7" height="7" transform="rotate(0,115.5,80.5)"/><rect x="119" y="77" width="7" height="7" transform="rotate(0,122.5,80.5)"/><rect x="126" y="77" width="7" height="7" transform="rotate(0,129.5,80.5)"/><rect x="154" y="77" width="7" height="7" transform="rotate(0,157.5,80.5)"/><rect x="182" y="77" width="7" height="7" transform="rotate(0,185.5,80.5)"/><rect x="189" y="77" width="7" height="7" transform="rotate(0,192.5,80.5)"/><rect x="196" y="77" width="7" height="7" transform="rotate(0,199.5,80.5)"/><rect x="203" y="77" width="7" height="7" transform="rotate(0,206.5,80.5)"/><rect x="231" y="77" width="7" height="7" transform="rotate(0,234.5,80.5)"/><rect x="238" y="77" width="7" height="7" transform="rotate(0,241.5,80.5)"/><rect x="14" y="84" width="7" height="7" transform="rotate(0,17.5,87.5)"/><rect x="21" y="84" width="7" height="7" transform="rotate(0,24.5,87.5)"/><rect x="28" y="84" width="7" height="7" transform="rotate(0,31.5,87.5)"/><rect x="42" y="84" width="7" height="7" transform="rotate(0,45.5,87.5)"/><rect x="56" y="84" width="7" height="7" transform="rotate(0,59.5,87.5)"/><rect x="77" y="84" width="7" height="7" transform="rotate(0,80.5,87.5)"/><rect x="84" y="84" width="7" height="7" transform="rotate(0,87.5,87.5)"/><rect x="98" y="84" width="7" height="7" transform="rotate(0,101.5,87.5)"/><rect x="105" y="84" width="7" height="7" transform="rotate(0,108.5,87.5)"/><rect x="112" y="84" width="7" height="7" transform="rotate(0,115.5,87.5)"/><rect x="119" y="84" width="7" height="7" transform="rotate(0,122.5,87.5)"/><rect x="133" y="84" width="7" height="7" transform="rotate(0,136.5,87.5)"/><rect x="147" y="84" width="7" height="7" transform="rotate(0,150.5,87.5)"/><rect x="154" y="84" width="7" height="7" transform="rotate(0,157.5,87.5)"/><rect x="161" y="84" width="7" height="7" transform="rotate(0,164.5,87.5)"/><rect x="168" y="84" width="7" height="7" transform="rotate(0,171.5,87.5)"/><rect x="189" y="84" width="7" height="7" transform="rotate(0,192.5,87.5)"/><rect x="196" y="84" width="7" height="7" transform="rotate(0,199.5,87.5)"/><rect x="203" y="84" width="7" height="7" transform="rotate(0,206.5,87.5)"/><rect x="210" y="84" width="7" height="7" transform="rotate(0,213.5,87.5)"/><rect x="224" y="84" width="7" height="7" transform="rotate(0,227.5,87.5)"/><rect x="238" y="84" width="7" height="7" transform="rotate(0,241.5,87.5)"/><rect x="14" y="91" width="7" height="7" transform="rotate(0,17.5,94.5)"/><rect x="35" y="91" width="7" height="7" transform="rotate(0,38.5,94.5)"/><rect x="77" y="91" width="7" height="7" transform="rotate(0,80.5,94.5)"/><rect x="84" y="91" width="7" height="7" transform="rotate(0,87.5,94.5)"/><rect x="91" y="91" width="7" height="7" transform="rotate(0,94.5,94.5)"/><rect x="105" y="91" width="7" height="7" transform="rotate(0,108.5,94.5)"/><rect x="112" y="91" width="7" height="7" transform="rotate(0,115.5,94.5)"/><rect x="119" y="91" width="7" height="7" transform="rotate(0,122.5,94.5)"/><rect x="126" y="91" width="7" height="7" transform="rotate(0,129.5,94.5)"/><rect x="133" y="91" width="7" height="7" transform="rotate(0,136.5,94.5)"/><rect x="154" y="91" width="7" height="7" transform="rotate(0,157.5,94.5)"/><rect x="175" y="91" width="7" height="7" transform="rotate(0,178.5,94.5)"/><rect x="182" y="91" width="7" height="7" transform="rotate(0,185.5,94.5)"/><rect x="189" y="91" width="7" height="7" transform="rotate(0,192.5,94.5)"/><rect x="210" y="91" width="7" height="7" transform="rotate(0,213.5,94.5)"/><rect x="217" y="91" width="7" height="7" transform="rotate(0,220.5,94.5)"/><rect x="14" y="98" width="7" height="7" transform="rotate(0,17.5,101.5)"/><rect x="28" y="98" width="7" height="7" transform="rotate(0,31.5,101.5)"/><rect x="35" y="98" width="7" height="7" transform="rotate(0,38.5,101.5)"/><rect x="56" y="98" width="7" height="7" transform="rotate(0,59.5,101.5)"/><rect x="70" y="98" width="7" height="7" transform="rotate(0,73.5,101.5)"/><rect x="77" y="98" width="7" height="7" transform="rotate(0,80.5,101.5)"/><rect x="84" y="98" width="7" height="7" transform="rotate(0,87.5,101.5)"/><rect x="91" y="98" width="7" height="7" transform="rotate(0,94.5,101.5)"/><rect x="105" y="98" width="7" height="7" transform="rotate(0,108.5,101.5)"/><rect x="112" y="98" width="7" height="7" transform="rotate(0,115.5,101.5)"/><rect x="119" y="98" width="7" height="7" transform="rotate(0,122.5,101.5)"/><rect x="126" y="98" width="7" height="7" transform="rotate(0,129.5,101.5)"/><rect x="182" y="98" width="7" height="7" transform="rotate(0,185.5,101.5)"/><rect x="189" y="98" width="7" height="7" transform="rotate(0,192.5,101.5)"/><rect x="196" y="98" width="7" height="7" transform="rotate(0,199.5,101.5)"/><rect x="217" y="98" width="7" height="7" transform="rotate(0,220.5,101.5)"/><rect x="231" y="98" width="7" height="7" transform="rotate(0,234.5,101.5)"/><rect x="21" y="105" width="7" height="7" transform="rotate(0,24.5,108.5)"/><rect x="28" y="105" width="7" height="7" transform="rotate(0,31.5,108.5)"/><rect x="42" y="105" width="7" height="7" transform="rotate(0,45.5,108.5)"/><rect x="49" y="105" width="7" height="7" transform="rotate(0,52.5,108.5)"/><rect x="63" y="105" width="7" height="7" transform="rotate(0,66.5,108.5)"/><rect x="98" y="105" width="7" height="7" transform="rotate(0,101.5,108.5)"/><rect x="105" y="105" width="7" height="7" transform="rotate(0,108.5,108.5)"/><rect x="112" y="105" width="7" height="7" transform="rotate(0,115.5,108.5)"/><rect x="119" y="105" width="7" height="7" transform="rotate(0,122.5,108.5)"/><rect x="126" y="105" width="7" height="7" transform="rotate(0,129.5,108.5)"/><rect x="133" y="105" width="7" height="7" transform="rotate(0,136.5,108.5)"/><rect x="161" y="105" width="7" height="7" transform="rotate(0,164.5,108.5)"/><rect x="168" y="105" width="7" height="7" transform="rotate(0,171.5,108.5)"/><rect x="175" y="105" width="7" height="7" transform="rotate(0,178.5,108.5)"/><rect x="210" y="105" width="7" height="7" transform="rotate(0,213.5,108.5)"/><rect x="224" y="105" width="7" height="7" transform="rotate(0,227.5,108.5)"/><rect x="231" y="105" width="7" height="7" transform="rotate(0,234.5,108.5)"/><rect x="238" y="105" width="7" height="7" transform="rotate(0,241.5,108.5)"/><rect x="21" y="112" width="7" height="7" transform="rotate(0,24.5,115.5)"/><rect x="28" y="112" width="7" height="7" transform="rotate(0,31.5,115.5)"/><rect x="49" y="112" width="7" height="7" transform="rotate(0,52.5,115.5)"/><rect x="56" y="112" width="7" height="7" transform="rotate(0,59.5,115.5)"/><rect x="91" y="112" width="7" height="7" transform="rotate(0,94.5,115.5)"/><rect x="119" y="112" width="7" height="7" transform="rotate(0,122.5,115.5)"/><rect x="126" y="112" width="7" height="7" transform="rotate(0,129.5,115.5)"/><rect x="133" y="112" width="7" height="7" transform="rotate(0,136.5,115.5)"/><rect x="154" y="112" width="7" height="7" transform="rotate(0,157.5,115.5)"/><rect x="175" y="112" width="7" height="7" transform="rotate(0,178.5,115.5)"/><rect x="182" y="112" width="7" height="7" transform="rotate(0,185.5,115.5)"/><rect x="189" y="112" width="7" height="7" transform="rotate(0,192.5,115.5)"/><rect x="196" y="112" width="7" height="7" transform="rotate(0,199.5,115.5)"/><rect x="203" y="112" width="7" height="7" transform="rotate(0,206.5,115.5)"/><rect x="210" y="112" width="7" height="7" transform="rotate(0,213.5,115.5)"/><rect x="224" y="112" width="7" height="7" transform="rotate(0,227.5,115.5)"/><rect x="231" y="112" width="7" height="7" transform="rotate(0,234.5,115.5)"/><rect x="28" y="119" width="7" height="7" transform="rotate(0,31.5,122.5)"/><rect x="35" y="119" width="7" height="7" transform="rotate(0,38.5,122.5)"/><rect x="42" y="119" width="7" height="7" transform="rotate(0,45.5,122.5)"/><rect x="49" y="119" width="7" height="7" transform="rotate(0,52.5,122.5)"/><rect x="63" y="119" width="7" height="7" transform="rotate(0,66.5,122.5)"/><rect x="91" y="119" width="7" height="7" transform="rotate(0,94.5,122.5)"/><rect x="105" y="119" width="7" height="7" transform="rotate(0,108.5,122.5)"/><rect x="112" y="119" width="7" height="7" transform="rotate(0,115.5,122.5)"/><rect x="126" y="119" width="7" height="7" transform="rotate(0,129.5,122.5)"/><rect x="133" y="119" width="7" height="7" transform="rotate(0,136.5,122.5)"/><rect x="140" y="119" width="7" height="7" transform="rotate(0,143.5,122.5)"/><rect x="147" y="119" width="7" height="7" transform="rotate(0,150.5,122.5)"/><rect x="161" y="119" width="7" height="7" transform="rotate(0,164.5,122.5)"/><rect x="168" y="119" width="7" height="7" transform="rotate(0,171.5,122.5)"/><rect x="182" y="119" width="7" height="7" transform="rotate(0,185.5,122.5)"/><rect x="196" y="119" width="7" height="7" transform="rotate(0,199.5,122.5)"/><rect x="203" y="119" width="7" height="7" transform="rotate(0,206.5,122.5)"/><rect x="217" y="119" width="7" height="7" transform="rotate(0,220.5,122.5)"/><rect x="231" y="119" width="7" height="7" transform="rotate(0,234.5,122.5)"/><rect x="14" y="126" width="7" height="7" transform="rotate(0,17.5,129.5)"/><rect x="28" y="126" width="7" height="7" transform="rotate(0,31.5,129.5)"/><rect x="42" y="126" width="7" height="7" transform="rotate(0,45.5,129.5)"/><rect x="49" y="126" width="7" height="7" transform="rotate(0,52.5,129.5)"/><rect x="56" y="126" width="7" height="7" transform="rotate(0,59.5,129.5)"/><rect x="63" y="126" width="7" height="7" transform="rotate(0,66.5,129.5)"/><rect x="70" y="126" width="7" height="7" transform="rotate(0,73.5,129.5)"/><rect x="91" y="126" width="7" height="7" transform="rotate(0,94.5,129.5)"/><rect x="98" y="126" width="7" height="7" transform="rotate(0,101.5,129.5)"/><rect x="105" y="126" width="7" height="7" transform="rotate(0,108.5,129.5)"/><rect x="112" y="126" width="7" height="7" transform="rotate(0,115.5,129.5)"/><rect x="126" y="126" width="7" height="7" transform="rotate(0,129.5,129.5)"/><rect x="140" y="126" width="7" height="7" transform="rotate(0,143.5,129.5)"/><rect x="147" y="126" width="7" height="7" transform="rotate(0,150.5,129.5)"/><rect x="161" y="126" width="7" height="7" transform="rotate(0,164.5,129.5)"/><rect x="168" y="126" width="7" height="7" transform="rotate(0,171.5,129.5)"/><rect x="175" y="126" width="7" height="7" transform="rotate(0,178.5,129.5)"/><rect x="182" y="126" width="7" height="7" transform="rotate(0,185.5,129.5)"/><rect x="196" y="126" width="7" height="7" transform="rotate(0,199.5,129.5)"/><rect x="210" y="126" width="7" height="7" transform="rotate(0,213.5,129.5)"/><rect x="231" y="126" width="7" height="7" transform="rotate(0,234.5,129.5)"/><rect x="14" y="133" width="7" height="7" transform="rotate(0,17.5,136.5)"/><rect x="49" y="133" width="7" height="7" transform="rotate(0,52.5,136.5)"/><rect x="77" y="133" width="7" height="7" transform="rotate(0,80.5,136.5)"/><rect x="84" y="133" width="7" height="7" transform="rotate(0,87.5,136.5)"/><rect x="98" y="133" width="7" height="7" transform="rotate(0,101.5,136.5)"/><rect x="105" y="133" width="7" height="7" transform="rotate(0,108.5,136.5)"/><rect x="112" y="133" width="7" height="7" transform="rotate(0,115.5,136.5)"/><rect x="119" y="133" width="7" height="7" transform="rotate(0,122.5,136.5)"/><rect x="126" y="133" width="7" height="7" transform="rotate(0,129.5,136.5)"/><rect x="140" y="133" width="7" height="7" transform="rotate(0,143.5,136.5)"/><rect x="161" y="133" width="7" height="7" transform="rotate(0,164.5,136.5)"/><rect x="168" y="133" width="7" height="7" transform="rotate(0,171.5,136.5)"/><rect x="175" y="133" width="7" height="7" transform="rotate(0,178.5,136.5)"/><rect x="182" y="133" width="7" height="7" transform="rotate(0,185.5,136.5)"/><rect x="203" y="133" width="7" height="7" transform="rotate(0,206.5,136.5)"/><rect x="217" y="133" width="7" height="7" transform="rotate(0,220.5,136.5)"/><rect x="231" y="133" width="7" height="7" transform="rotate(0,234.5,136.5)"/><rect x="14" y="140" width="7" height="7" transform="rotate(0,17.5,143.5)"/><rect x="21" y="140" width="7" height="7" transform="rotate(0,24.5,143.5)"/><rect x="28" y="140" width="7" height="7" transform="rotate(0,31.5,143.5)"/><rect x="35" y="140" width="7" height="7" transform="rotate(0,38.5,143.5)"/><rect x="42" y="140" width="7" height="7" transform="rotate(0,45.5,143.5)"/><rect x="49" y="140" width="7" height="7" transform="rotate(0,52.5,143.5)"/><rect x="56" y="140" width="7" height="7" transform="rotate(0,59.5,143.5)"/><rect x="77" y="140" width="7" height="7" transform="rotate(0,80.5,143.5)"/><rect x="105" y="140" width="7" height="7" transform="rotate(0,108.5,143.5)"/><rect x="112" y="140" width="7" height="7" transform="rotate(0,115.5,143.5)"/><rect x="168" y="140" width="7" height="7" transform="rotate(0,171.5,143.5)"/><rect x="182" y="140" width="7" height="7" transform="rotate(0,185.5,143.5)"/><rect x="189" y="140" width="7" height="7" transform="rotate(0,192.5,143.5)"/><rect x="196" y="140" width="7" height="7" transform="rotate(0,199.5,143.5)"/><rect x="224" y="140" width="7" height="7" transform="rotate(0,227.5,143.5)"/><rect x="231" y="140" width="7" height="7" transform="rotate(0,234.5,143.5)"/><rect x="238" y="140" width="7" height="7" transform="rotate(0,241.5,143.5)"/><rect x="14" y="147" width="7" height="7" transform="rotate(0,17.5,150.5)"/><rect x="28" y="147" width="7" height="7" transform="rotate(0,31.5,150.5)"/><rect x="49" y="147" width="7" height="7" transform="rotate(0,52.5,150.5)"/><rect x="63" y="147" width="7" height="7" transform="rotate(0,66.5,150.5)"/><rect x="70" y="147" width="7" height="7" transform="rotate(0,73.5,150.5)"/><rect x="77" y="147" width="7" height="7" transform="rotate(0,80.5,150.5)"/><rect x="84" y="147" width="7" height="7" transform="rotate(0,87.5,150.5)"/><rect x="105" y="147" width="7" height="7" transform="rotate(0,108.5,150.5)"/><rect x="119" y="147" width="7" height="7" transform="rotate(0,122.5,150.5)"/><rect x="126" y="147" width="7" height="7" transform="rotate(0,129.5,150.5)"/><rect x="147" y="147" width="7" height="7" transform="rotate(0,150.5,150.5)"/><rect x="154" y="147" width="7" height="7" transform="rotate(0,157.5,150.5)"/><rect x="161" y="147" width="7" height="7" transform="rotate(0,164.5,150.5)"/><rect x="182" y="147" width="7" height="7" transform="rotate(0,185.5,150.5)"/><rect x="203" y="147" width="7" height="7" transform="rotate(0,206.5,150.5)"/><rect x="231" y="147" width="7" height="7" transform="rotate(0,234.5,150.5)"/><rect x="238" y="147" width="7" height="7" transform="rotate(0,241.5,150.5)"/><rect x="14" y="154" width="7" height="7" transform="rotate(0,17.5,157.5)"/><rect x="21" y="154" width="7" height="7" transform="rotate(0,24.5,157.5)"/><rect x="49" y="154" width="7" height="7" transform="rotate(0,52.5,157.5)"/><rect x="56" y="154" width="7" height="7" transform="rotate(0,59.5,157.5)"/><rect x="105" y="154" width="7" height="7" transform="rotate(0,108.5,157.5)"/><rect x="119" y="154" width="7" height="7" transform="rotate(0,122.5,157.5)"/><rect x="147" y="154" width="7" height="7" transform="rotate(0,150.5,157.5)"/><rect x="168" y="154" width="7" height="7" transform="rotate(0,171.5,157.5)"/><rect x="182" y="154" width="7" height="7" transform="rotate(0,185.5,157.5)"/><rect x="189" y="154" width="7" height="7" transform="rotate(0,192.5,157.5)"/><rect x="35" y="161" width="7" height="7" transform="rotate(0,38.5,164.5)"/><rect x="42" y="161" width="7" height="7" transform="rotate(0,45.5,164.5)"/><rect x="70" y="161" width="7" height="7" transform="rotate(0,73.5,164.5)"/><rect x="77" y="161" width="7" height="7" transform="rotate(0,80.5,164.5)"/><rect x="91" y="161" width="7" height="7" transform="rotate(0,94.5,164.5)"/><rect x="98" y="161" width="7" height="7" transform="rotate(0,101.5,164.5)"/><rect x="105" y="161" width="7" height="7" transform="rotate(0,108.5,164.5)"/><rect x="140" y="161" width="7" height="7" transform="rotate(0,143.5,164.5)"/><rect x="147" y="161" width="7" height="7" transform="rotate(0,150.5,164.5)"/><rect x="154" y="161" width="7" height="7" transform="rotate(0,157.5,164.5)"/><rect x="161" y="161" width="7" height="7" transform="rotate(0,164.5,164.5)"/><rect x="168" y="161" width="7" height="7" transform="rotate(0,171.5,164.5)"/><rect x="182" y="161" width="7" height="7" transform="rotate(0,185.5,164.5)"/><rect x="224" y="161" width="7" height="7" transform="rotate(0,227.5,164.5)"/><rect x="231" y="161" width="7" height="7" transform="rotate(0,234.5,164.5)"/><rect x="238" y="161" width="7" height="7" transform="rotate(0,241.5,164.5)"/><rect x="14" y="168" width="7" height="7" transform="rotate(0,17.5,171.5)"/><rect x="21" y="168" width="7" height="7" transform="rotate(0,24.5,171.5)"/><rect x="28" y="168" width="7" height="7" transform="rotate(0,31.5,171.5)"/><rect x="49" y="168" width="7" height="7" transform="rotate(0,52.5,171.5)"/><rect x="56" y="168" width="7" height="7" transform="rotate(0,59.5,171.5)"/><rect x="63" y="168" width="7" height="7" transform="rotate(0,66.5,171.5)"/><rect x="77" y="168" width="7" height="7" transform="rotate(0,80.5,171.5)"/><rect x="84" y="168" width="7" height="7" transform="rotate(0,87.5,171.5)"/><rect x="91" y="168" width="7" height="7" transform="rotate(0,94.5,171.5)"/><rect x="112" y="168" width="7" height="7" transform="rotate(0,115.5,171.5)"/><rect x="119" y="168" width="7" height="7" transform="rotate(0,122.5,171.5)"/><rect x="126" y="168" width="7" height="7" transform="rotate(0,129.5,171.5)"/><rect x="154" y="168" width="7" height="7" transform="rotate(0,157.5,171.5)"/><rect x="161" y="168" width="7" height="7" transform="rotate(0,164.5,171.5)"/><rect x="182" y="168" width="7" height="7" transform="rotate(0,185.5,171.5)"/><rect x="189" y="168" width="7" height="7" transform="rotate(0,192.5,171.5)"/><rect x="196" y="168" width="7" height="7" transform="rotate(0,199.5,171.5)"/><rect x="203" y="168" width="7" height="7" transform="rotate(0,206.5,171.5)"/><rect x="217" y="168" width="7" height="7" transform="rotate(0,220.5,171.5)"/><rect x="238" y="168" width="7" height="7" transform="rotate(0,241.5,171.5)"/><rect x="21" y="175" width="7" height="7" transform="rotate(0,24.5,178.5)"/><rect x="42" y="175" width="7" height="7" transform="rotate(0,45.5,178.5)"/><rect x="49" y="175" width="7" height="7" transform="rotate(0,52.5,178.5)"/><rect x="63" y="175" width="7" height="7" transform="rotate(0,66.5,178.5)"/><rect x="84" y="175" width="7" height="7" transform="rotate(0,87.5,178.5)"/><rect x="91" y="175" width="7" height="7" transform="rotate(0,94.5,178.5)"/><rect x="140" y="175" width="7" height="7" transform="rotate(0,143.5,178.5)"/><rect x="161" y="175" width="7" height="7" transform="rotate(0,164.5,178.5)"/><rect x="182" y="175" width="7" height="7" transform="rotate(0,185.5,178.5)"/><rect x="196" y="175" width="7" height="7" transform="rotate(0,199.5,178.5)"/><rect x="203" y="175" width="7" height="7" transform="rotate(0,206.5,178.5)"/><rect x="210" y="175" width="7" height="7" transform="rotate(0,213.5,178.5)"/><rect x="217" y="175" width="7" height="7" transform="rotate(0,220.5,178.5)"/><rect x="14" y="182" width="7" height="7" transform="rotate(0,17.5,185.5)"/><rect x="35" y="182" width="7" height="7" transform="rotate(0,38.5,185.5)"/><rect x="42" y="182" width="7" height="7" transform="rotate(0,45.5,185.5)"/><rect x="56" y="182" width="7" height="7" transform="rotate(0,59.5,185.5)"/><rect x="70" y="182" width="7" height="7" transform="rotate(0,73.5,185.5)"/><rect x="105" y="182" width="7" height="7" transform="rotate(0,108.5,185.5)"/><rect x="119" y="182" width="7" height="7" transform="rotate(0,122.5,185.5)"/><rect x="140" y="182" width="7" height="7" transform="rotate(0,143.5,185.5)"/><rect x="147" y="182" width="7" height="7" transform="rotate(0,150.5,185.5)"/><rect x="154" y="182" width="7" height="7" transform="rotate(0,157.5,185.5)"/><rect x="161" y="182" width="7" height="7" transform="rotate(0,164.5,185.5)"/><rect x="182" y="182" width="7" height="7" transform="rotate(0,185.5,185.5)"/><rect x="189" y="182" width="7" height="7" transform="rotate(0,192.5,185.5)"/><rect x="196" y="182" width="7" height="7" transform="rotate(0,199.5,185.5)"/><rect x="203" y="182" width="7" height="7" transform="rotate(0,206.5,185.5)"/><rect x="210" y="182" width="7" height="7" transform="rotate(0,213.5,185.5)"/><rect x="217" y="182" width="7" height="7" transform="rotate(0,220.5,185.5)"/><rect x="238" y="182" width="7" height="7" transform="rotate(0,241.5,185.5)"/><rect x="70" y="189" width="7" height="7" transform="rotate(0,73.5,192.5)"/><rect x="77" y="189" width="7" height="7" transform="rotate(0,80.5,192.5)"/><rect x="84" y="189" width="7" height="7" transform="rotate(0,87.5,192.5)"/><rect x="105" y="189" width="7" height="7" transform="rotate(0,108.5,192.5)"/><rect x="119" y="189" width="7" height="7" transform="rotate(0,122.5,192.5)"/><rect x="126" y="189" width="7" height="7" transform="rotate(0,129.5,192.5)"/><rect x="133" y="189" width="7" height="7" transform="rotate(0,136.5,192.5)"/><rect x="140" y="189" width="7" height="7" transform="rotate(0,143.5,192.5)"/><rect x="147" y="189" width="7" height="7" transform="rotate(0,150.5,192.5)"/><rect x="154" y="189" width="7" height="7" transform="rotate(0,157.5,192.5)"/><rect x="168" y="189" width="7" height="7" transform="rotate(0,171.5,192.5)"/><rect x="175" y="189" width="7" height="7" transform="rotate(0,178.5,192.5)"/><rect x="182" y="189" width="7" height="7" transform="rotate(0,185.5,192.5)"/><rect x="210" y="189" width="7" height="7" transform="rotate(0,213.5,192.5)"/><rect x="217" y="189" width="7" height="7" transform="rotate(0,220.5,192.5)"/><rect x="238" y="189" width="7" height="7" transform="rotate(0,241.5,192.5)"/><rect x="70" y="196" width="7" height="7" transform="rotate(0,73.5,199.5)"/><rect x="77" y="196" width="7" height="7" transform="rotate(0,80.5,199.5)"/><rect x="84" y="196" width="7" height="7" transform="rotate(0,87.5,199.5)"/><rect x="91" y="196" width="7" height="7" transform="rotate(0,94.5,199.5)"/><rect x="98" y="196" width="7" height="7" transform="rotate(0,101.5,199.5)"/><rect x="112" y="196" width="7" height="7" transform="rotate(0,115.5,199.5)"/><rect x="133" y="196" width="7" height="7" transform="rotate(0,136.5,199.5)"/><rect x="140" y="196" width="7" height="7" transform="rotate(0,143.5,199.5)"/><rect x="161" y="196" width="7" height="7" transform="rotate(0,164.5,199.5)"/><rect x="182" y="196" width="7" height="7" transform="rotate(0,185.5,199.5)"/><rect x="196" y="196" width="7" height="7" transform="rotate(0,199.5,199.5)"/><rect x="210" y="196" width="7" height="7" transform="rotate(0,213.5,199.5)"/><rect x="217" y="196" width="7" height="7" transform="rotate(0,220.5,199.5)"/><rect x="224" y="196" width="7" height="7" transform="rotate(0,227.5,199.5)"/><rect x="231" y="196" width="7" height="7" transform="rotate(0,234.5,199.5)"/><rect x="70" y="203" width="7" height="7" transform="rotate(0,73.5,206.5)"/><rect x="77" y="203" width="7" height="7" transform="rotate(0,80.5,206.5)"/><rect x="98" y="203" width="7" height="7" transform="rotate(0,101.5,206.5)"/><rect x="105" y="203" width="7" height="7" transform="rotate(0,108.5,206.5)"/><rect x="119" y="203" width="7" height="7" transform="rotate(0,122.5,206.5)"/><rect x="126" y="203" width="7" height="7" transform="rotate(0,129.5,206.5)"/><rect x="133" y="203" width="7" height="7" transform="rotate(0,136.5,206.5)"/><rect x="140" y="203" width="7" height="7" transform="rotate(0,143.5,206.5)"/><rect x="147" y="203" width="7" height="7" transform="rotate(0,150.5,206.5)"/><rect x="154" y="203" width="7" height="7" transform="rotate(0,157.5,206.5)"/><rect x="175" y="203" width="7" height="7" transform="rotate(0,178.5,206.5)"/><rect x="182" y="203" width="7" height="7" transform="rotate(0,185.5,206.5)"/><rect x="210" y="203" width="7" height="7" transform="rotate(0,213.5,206.5)"/><rect x="231" y="203" width="7" height="7" transform="rotate(0,234.5,206.5)"/><rect x="238" y="203" width="7" height="7" transform="rotate(0,241.5,206.5)"/><rect x="91" y="210" width="7" height="7" transform="rotate(0,94.5,213.5)"/><rect x="98" y="210" width="7" height="7" transform="rotate(0,101.5,213.5)"/><rect x="112" y="210" width="7" height="7" transform="rotate(0,115.5,213.5)"/><rect x="119" y="210" width="7" height="7" transform="rotate(0,122.5,213.5)"/><rect x="133" y="210" width="7" height="7" transform="rotate(0,136.5,213.5)"/><rect x="147" y="210" width="7" height="7" transform="rotate(0,150.5,213.5)"/><rect x="168" y="210" width="7" height="7" transform="rotate(0,171.5,213.5)"/><rect x="182" y="210" width="7" height="7" transform="rotate(0,185.5,213.5)"/><rect x="189" y="210" width="7" height="7" transform="rotate(0,192.5,213.5)"/><rect x="196" y="210" width="7" height="7" transform="rotate(0,199.5,213.5)"/><rect x="203" y="210" width="7" height="7" transform="rotate(0,206.5,213.5)"/><rect x="210" y="210" width="7" height="7" transform="rotate(0,213.5,213.5)"/><rect x="217" y="210" width="7" height="7" transform="rotate(0,220.5,213.5)"/><rect x="70" y="217" width="7" height="7" transform="rotate(0,73.5,220.5)"/><rect x="77" y="217" width="7" height="7" transform="rotate(0,80.5,220.5)"/><rect x="84" y="217" width="7" height="7" transform="rotate(0,87.5,220.5)"/><rect x="98" y="217" width="7" height="7" transform="rotate(0,101.5,220.5)"/><rect x="105" y="217" width="7" height="7" transform="rotate(0,108.5,220.5)"/><rect x="112" y="217" width="7" height="7" transform="rotate(0,115.5,220.5)"/><rect x="133" y="217" width="7" height="7" transform="rotate(0,136.5,220.5)"/><rect x="147" y="217" width="7" height="7" transform="rotate(0,150.5,220.5)"/><rect x="154" y="217" width="7" height="7" transform="rotate(0,157.5,220.5)"/><rect x="161" y="217" width="7" height="7" transform="rotate(0,164.5,220.5)"/><rect x="182" y="217" width="7" height="7" transform="rotate(0,185.5,220.5)"/><rect x="196" y="217" width="7" height="7" transform="rotate(0,199.5,220.5)"/><rect x="210" y="217" width="7" height="7" transform="rotate(0,213.5,220.5)"/><rect x="217" y="217" width="7" height="7" transform="rotate(0,220.5,220.5)"/><rect x="231" y="217" width="7" height="7" transform="rotate(0,234.5,220.5)"/><rect x="77" y="224" width="7" height="7" transform="rotate(0,80.5,227.5)"/><rect x="91" y="224" width="7" height="7" transform="rotate(0,94.5,227.5)"/><rect x="98" y="224" width="7" height="7" transform="rotate(0,101.5,227.5)"/><rect x="119" y="224" width="7" height="7" transform="rotate(0,122.5,227.5)"/><rect x="140" y="224" width="7" height="7" transform="rotate(0,143.5,227.5)"/><rect x="168" y="224" width="7" height="7" transform="rotate(0,171.5,227.5)"/><rect x="182" y="224" width="7" height="7" transform="rotate(0,185.5,227.5)"/><rect x="189" y="224" width="7" height="7" transform="rotate(0,192.5,227.5)"/><rect x="210" y="224" width="7" height="7" transform="rotate(0,213.5,227.5)"/><rect x="238" y="224" width="7" height="7" transform="rotate(0,241.5,227.5)"/><rect x="70" y="231" width="7" height="7" transform="rotate(0,73.5,234.5)"/><rect x="91" y="231" width="7" height="7" transform="rotate(0,94.5,234.5)"/><rect x="112" y="231" width="7" height="7" transform="rotate(0,115.5,234.5)"/><rect x="126" y="231" width="7" height="7" transform="rotate(0,129.5,234.5)"/><rect x="161" y="231" width="7" height="7" transform="rotate(0,164.5,234.5)"/><rect x="182" y="231" width="7" height="7" transform="rotate(0,185.5,234.5)"/><rect x="196" y="231" width="7" height="7" transform="rotate(0,199.5,234.5)"/><rect x="84" y="238" width="7" height="7" transform="rotate(0,87.5,241.5)"/><rect x="140" y="238" width="7" height="7" transform="rotate(0,143.5,241.5)"/><rect x="154" y="238" width="7" height="7" transform="rotate(0,157.5,241.5)"/><rect x="161" y="238" width="7" height="7" transform="rotate(0,164.5,241.5)"/><rect x="182" y="238" width="7" height="7" transform="rotate(0,185.5,241.5)"/><rect x="210" y="238" width="7" height="7" transform="rotate(0,213.5,241.5)"/><rect x="224" y="238" width="7" height="7" transform="rotate(0,227.5,241.5)"/><rect x="231" y="238" width="7" height="7" transform="rotate(0,234.5,241.5)"/></clipPath><clipPath id="clip-path-corners-square-color-0-0-0"><rect x="14" y="14" width="7" height="7" transform="rotate(0,17.5,17.5)"/><rect x="21" y="14" width="7" height="7" transform="rotate(0,24.5,17.5)"/><rect x="28" y="14" width="7" height="7" transform="rotate(0,31.5,17.5)"/><rect x="35" y="14" width="7" height="7" transform="rotate(0,38.5,17.5)"/><rect x="42" y="14" width="7" height="7" transform="rotate(0,45.5,17.5)"/><rect x="49" y="14" width="7" height="7" transform="rotate(0,52.5,17.5)"/><rect x="56" y="14" width="7" height="7" transform="rotate(0,59.5,17.5)"/><rect x="14" y="21" width="7" height="7" transform="rotate(0,17.5,24.5)"/><rect x="56" y="21" width="7" height="7" transform="rotate(0,59.5,24.5)"/><rect x="14" y="28" width="7" height="7" transform="rotate(0,17.5,31.5)"/><rect x="56" y="28" width="7" height="7" transform="rotate(0,59.5,31.5)"/><rect x="14" y="35" width="7" height="7" transform="rotate(0,17.5,38.5)"/><rect x="56" y="35" width="7" height="7" transform="rotate(0,59.5,38.5)"/><rect x="14" y="42" width="7" height="7" transform="rotate(0,17.5,45.5)"/><rect x="56" y="42" width="7" height="7" transform="rotate(0,59.5,45.5)"/><rect x="14" y="49" width="7" height="7" transform="rotate(0,17.5,52.5)"/><rect x="56" y="49" width="7" height="7" transform="rotate(0,59.5,52.5)"/><rect x="14" y="56" width="7" height="7" transform="rotate(0,17.5,59.5)"/><rect x="21" y="56" width="7" height="7" transform="rotate(0,24.5,59.5)"/><rect x="28" y="56" width="7" height="7" transform="rotate(0,31.5,59.5)"/><rect x="35" y="56" width="7" height="7" transform="rotate(0,38.5,59.5)"/><rect x="42" y="56" width="7" height="7" transform="rotate(0,45.5,59.5)"/><rect x="49" y="56" width="7" height="7" transform="rotate(0,52.5,59.5)"/><rect x="56" y="56" width="7" height="7" transform="rotate(0,59.5,59.5)"/></clipPath><clipPath id="clip-path-corners-dot-color-0-0-0"><rect x="28" y="28" width="7" height="7" transform="rotate(0,31.5,31.5)"/><rect x="35" y="28" width="7" height="7" transform="rotate(0,38.5,31.5)"/><rect x="42" y="28" width="7" height="7" transform="rotate(0,45.5,31.5)"/><rect x="28" y="35" width="7" height="7" transform="rotate(0,31.5,38.5)"/><rect x="35" y="35" width="7" height="7" transform="rotate(0,38.5,38.5)"/><rect x="42" y="35" width="7" height="7" transform="rotate(0,45.5,38.5)"/><rect x="28" y="42" width="7" height="7" transform="rotate(0,31.5,45.5)"/><rect x="35" y="42" width="7" height="7" transform="rotate(0,38.5,45.5)"/><rect x="42" y="42" width="7" height="7" transform="rotate(0,45.5,45.5)"/></clipPath><clipPath id="clip-path-corners-square-color-1-0-0"><rect x="196" y="14" width="7" height="7" transform="rotate(0,199.5,17.5)"/><rect x="203" y="14" width="7" height="7" transform="rotate(0,206.5,17.5)"/><rect x="210" y="14" width="7" height="7" transform="rotate(0,213.5,17.5)"/><rect x="217" y="14" width="7" height="7" transform="rotate(0,220.5,17.5)"/><rect x="224" y="14" width="7" height="7" transform="rotate(0,227.5,17.5)"/><rect x="231" y="14" width="7" height="7" transform="rotate(0,234.5,17.5)"/><rect x="238" y="14" width="7" height="7" transform="rotate(0,241.5,17.5)"/><rect x="196" y="21" width="7" height="7" transform="rotate(0,199.5,24.5)"/><rect x="238" y="21" width="7" height="7" transform="rotate(0,241.5,24.5)"/><rect x="196" y="28" width="7" height="7" transform="rotate(0,199.5,31.5)"/><rect x="238" y="28" width="7" height="7" transform="rotate(0,241.5,31.5)"/><rect x="196" y="35" width="7" height="7" transform="rotate(0,199.5,38.5)"/><rect x="238" y="35" width="7" height="7" transform="rotate(0,241.5,38.5)"/><rect x="196" y="42" width="7" height="7" transform="rotate(0,199.5,45.5)"/><rect x="238" y="42" width="7" height="7" transform="rotate(0,241.5,45.5)"/><rect x="196" y="49" width="7" height="7" transform="rotate(0,199.5,52.5)"/><rect x="238" y="49" width="7" height="7" transform="rotate(0,241.5,52.5)"/><rect x="196" y="56" width="7" height="7" transform="rotate(0,199.5,59.5)"/><rect x="203" y="56" width="7" height="7" transform="rotate(0,206.5,59.5)"/><rect x="210" y="56" width="7" height="7" transform="rotate(0,213.5,59.5)"/><rect x="217" y="56" width="7" height="7" transform="rotate(0,220.5,59.5)"/><rect x="224" y="56" width="7" height="7" transform="rotate(0,227.5,59.5)"/><rect x="231" y="56" width="7" height="7" transform="rotate(0,234.5,59.5)"/><rect x="238" y="56" width="7" height="7" transform="rotate(0,241.5,59.5)"/></clipPath><clipPath id="clip-path-corners-dot-color-1-0-0"><rect x="210" y="28" width="7" height="7" transform="rotate(0,213.5,31.5)"/><rect x="217" y="28" width="7" height="7" transform="rotate(0,220.5,31.5)"/><rect x="224" y="28" width="7" height="7" transform="rotate(0,227.5,31.5)"/><rect x="210" y="35" width="7" height="7" transform="rotate(0,213.5,38.5)"/><rect x="217" y="35" width="7" height="7" transform="rotate(0,220.5,38.5)"/><rect x="224" y="35" width="7" height="7" transform="rotate(0,227.5,38.5)"/><rect x="210" y="42" width="7" height="7" transform="rotate(0,213.5,45.5)"/><rect x="217" y="42" width="7" height="7" transform="rotate(0,220.5,45.5)"/><rect x="224" y="42" width="7" height="7" transform="rotate(0,227.5,45.5)"/></clipPath><clipPath id="clip-path-corners-square-color-0-1-0"><rect x="14" y="196" width="7" height="7" transform="rotate(0,17.5,199.5)"/><rect x="21" y="196" width="7" height="7" transform="rotate(0,24.5,199.5)"/><rect x="28" y="196" width="7" height="7" transform="rotate(0,31.5,199.5)"/><rect x="35" y="196" width="7" height="7" transform="rotate(0,38.5,199.5)"/><rect x="42" y="196" width="7" height="7" transform="rotate(0,45.5,199.5)"/><rect x="49" y="196" width="7" height="7" transform="rotate(0,52.5,199.5)"/><rect x="56" y="196" width="7" height="7" transform="rotate(0,59.5,199.5)"/><rect x="14" y="203" width="7" height="7" transform="rotate(0,17.5,206.5)"/><rect x="56" y="203" width="7" height="7" transform="rotate(0,59.5,206.5)"/><rect x="14" y="210" width="7" height="7" transform="rotate(0,17.5,213.5)"/><rect x="56" y="210" width="7" height="7" transform="rotate(0,59.5,213.5)"/><rect x="14" y="217" width="7" height="7" transform="rotate(0,17.5,220.5)"/><rect x="56" y="217" width="7" height="7" transform="rotate(0,59.5,220.5)"/><rect x="14" y="224" width="7" height="7" transform="rotate(0,17.5,227.5)"/><rect x="56" y="224" width="7" height="7" transform="rotate(0,59.5,227.5)"/><rect x="14" y="231" width="7" height="7" transform="rotate(0,17.5,234.5)"/><rect x="56" y="231" width="7" height="7" transform="rotate(0,59.5,234.5)"/><rect x="14" y="238" width="7" height="7" transform="rotate(0,17.5,241.5)"/><rect x="21" y="238" width="7" height="7" transform="rotate(0,24.5,241.5)"/><rect x="28" y="238" width="7" height="7" transform="rotate(0,31.5,241.5)"/><rect x="35" y="238" width="7" height="7" transform="rotate(0,38.5,241.5)"/><rect x="42" y="238" width="7" height="7" transform="rotate(0,45.5,241.5)"/><rect x="49" y="238" width="7" height="7" transform="rotate(0,52.5,241.5)"/><rect x="56" y="238" width="7" height="7" transform="rotate(0,59.5,241.5)"/></clipPath><clipPath id="clip-path-corners-dot-color-0-1-0"><rect x="28" y="210" width="7" height="7" transform="rotate(0,31.5,213.5)"/><rect x="35" y="210" width="7" height="7" transform="rotate(0,38.5,213.5)"/><rect x="42" y="210" width="7" height="7" transform="rotate(0,45.5,213.5)"/><rect x="28" y="217" width="7" height="7" transform="rotate(0,31.5,220.5)"/><rect x="35" y="217" width="7" height="7" transform="rotate(0,38.5,220.5)"/><rect x="42" y="217" width="7" height="7" transform="rotate(0,45.5,220.5)"/><rect x="28" y="224" width="7" height="7" transform="rotate(0,31.5,227.5)"/><rect x="35" y="224" width="7" height="7" transform="rotate(0,38.5,227.5)"/><rect x="42" y="224" width="7" height="7" transform="rotate(0,45.5,227.5)"/></clipPath></defs><rect x="0" y="0" height="260" width="260" clip-path="url('#clip-path-background-color-0')" fill="#FFFFFF"/><rect x="0" y="0" height="260" width="260" clip-path="url('#clip-path-dot-color-0')" fill="#000000"/><rect x="14" y="14" height="49" width="49" clip-path="url('#clip-path-corners-square-color-0-0-0')" fill="#000000"/><rect x="28" y="28" height="21" width="21" clip-path="url('#clip-path-corners-dot-color-0-0-0')" fill="#000000"/><rect x="196" y="14" height="49" width="49" clip-path="url('#clip-path-corners-square-color-1-0-0')" fill="#000000"/><rect x="210" y="28" height="21" width="21" clip-path="url('#clip-path-corners-dot-color-1-0-0')" fill="#000000"/><rect x="14" y="196" height="49" width="49" clip-path="url('#clip-path-corners-square-color-0-1-0')" fill="#000000"/><rect x="28" y="210" height="21" width="21" clip-path="url('#clip-path-corners-dot-color-0-1-0')" fill="#000000"/></svg>